<?xml version="1.0" standalone="no"?>
<!DOCTYPE svg PUBLIC "-//W3C//DTD SVG 20010904//EN"
 "http://www.w3.org/TR/2001/REC-SVG-20010904/DTD/svg10.dtd">
<svg version="1.0" xmlns="http://www.w3.org/2000/svg"
 width="512.000000pt" height="512.000000pt" viewBox="0 0 512.000000 512.000000"
 preserveAspectRatio="xMidYMid meet">
<metadata>
Created by potrace 1.14, written by Peter Selinger 2001-2017
</metadata>
<g transform="translate(0.000000,512.000000) scale(0.100000,-0.100000)"
fill="#000000" stroke="none">
<path d="M0 2560 l0 -2560 2560 0 2560 0 0 2560 0 2560 -2560 0 -2560 0 0
-2560z m470 922 c69 -81 266 -311 439 -512 173 -201 349 -405 390 -454 l76
-89 5 579 5 579 208 3 207 2 0 -1055 0 -1055 -57 1 -58 0 -520 581 -520 582
-3 -562 -2 -562 -205 0 -205 0 0 1055 0 1055 58 -1 57 0 125 -147z m2773 103
c45 -8 113 -24 150 -35 63 -20 66 -22 62 -48 -3 -15 -14 -108 -25 -207 -12
-98 -22 -180 -24 -182 -1 -1 -27 7 -57 18 -88 34 -196 50 -329 51 -215 0 -349
-50 -476 -178 -120 -120 -177 -264 -177 -449 0 -251 120 -462 321 -563 103
-51 163 -63 293 -60 l104 3 3 313 2 312 210 0 210 0 0 -456 0 -455 -82 -39
c-299 -140 -683 -130 -978 26 -295 155 -494 473 -519 829 -15 218 18 397 109
580 93 190 239 337 430 434 136 69 266 106 435 125 66 7 248 -3 338 -19z
m1263 0 c44 -9 116 -27 162 -41 79 -26 83 -28 78 -53 -3 -14 -15 -102 -27
-196 -11 -93 -23 -172 -24 -174 -2 -1 -32 7 -66 19 -189 65 -354 78 -446 36
-64 -30 -101 -82 -110 -153 -14 -120 50 -194 222 -256 359 -129 562 -321 597
-565 10 -70 10 -98 -4 -179 -82 -484 -620 -661 -1208 -397 -61 27 -61 27 -56
63 3 20 15 117 27 216 11 99 22 181 23 182 1 1 24 -12 51 -29 70 -44 197 -94
286 -113 100 -22 282 -24 329 -3 85 37 132 101 132 179 0 90 -63 166 -169 204
-242 89 -393 173 -498 279 -109 110 -155 223 -155 379 1 263 150 487 386 579
126 49 290 57 470 23z"/>
</g>
</svg>
